<?xml version="1.0" encoding="UTF-8" standalone="no"?>
<!-- Created with Inkscape (http://www.inkscape.org/) -->

<svg
   width="128"
   height="48"
   viewBox="0 0 33.866667 12.7"
   version="1.1"
   id="svg5"
   inkscape:version="1.2 (dc2aedaf03, 2022-05-15)"
   sodipodi:docname="button.svg"
   inkscape:export-filename="discord-button.png"
   inkscape:export-xdpi="144"
   inkscape:export-ydpi="144"
   xml:space="preserve"
   xmlns:inkscape="http://www.inkscape.org/namespaces/inkscape"
   xmlns:sodipodi="http://sodipodi.sourceforge.net/DTD/sodipodi-0.dtd"
   xmlns="http://www.w3.org/2000/svg"
   xmlns:svg="http://www.w3.org/2000/svg"><sodipodi:namedview
     id="namedview7"
     pagecolor="#ffffff"
     bordercolor="#111111"
     borderopacity="1"
     inkscape:pageshadow="0"
     inkscape:pageopacity="0"
     inkscape:pagecheckerboard="1"
     inkscape:document-units="mm"
     showgrid="false"
     units="px"
     inkscape:zoom="7.9973778"
     inkscape:cx="65.208874"
     inkscape:cy="31.197726"
     inkscape:window-width="1920"
     inkscape:window-height="991"
     inkscape:window-x="-9"
     inkscape:window-y="-9"
     inkscape:window-maximized="1"
     inkscape:current-layer="layer2"
     inkscape:snap-text-baseline="true"
     inkscape:showpageshadow="0"
     inkscape:deskcolor="#d1d1d1"><inkscape:grid
       type="xygrid"
       id="grid1040"
       empspacing="4"
       spacingx="0.52916667"
       spacingy="0.52916667"
       originx="0"
       originy="0" /></sodipodi:namedview><defs
     id="defs2"><clipPath
       id="clip0"><rect
         width="71"
         height="55"
         fill="white"
         id="rect13428" /></clipPath></defs><g
     inkscape:label="Background"
     inkscape:groupmode="layer"
     id="layer1"
     style="display:inline"><path
       id="path1225"
       style="fill:#5865f2;fill-rule:evenodd;stroke:#1a1a1a;stroke-width:1.37499998;stroke-linejoin:round;stop-color:#000000;stroke-dasharray:none;fill-opacity:1"
       d="m 24.000001,2 79.385659,45.833331 v 22 L 84.333102,80.83333 4.9474408,34.999999 l 6e-7,-22 z"
       sodipodi:nodetypes="ccccccc"
       transform="matrix(0.24996643,-0.14431818,0.14431818,0.24996643,-2.5836639,3.8144421)" /></g><g
     inkscape:groupmode="layer"
     id="layer2"
     inkscape:label="Discord"
     style="display:inline"
     sodipodi:insensitive="true"><path
       d="M 60.1045,4.8978 C 55.5792,2.8214 50.7265,1.2916 45.6527,0.41542 45.5603,0.39851 45.468,0.440769 45.4204,0.525289 44.7963,1.6353 44.105,3.0834 43.6209,4.2216 38.1637,3.4046 32.7345,3.4046 27.3892,4.2216 26.905,3.0581 26.1886,1.6353 25.5617,0.525289 25.5141,0.443589 25.4218,0.40133 25.3294,0.41542 20.2584,1.2888 15.4057,2.8186 10.8776,4.8978 10.8384,4.9147 10.8048,4.9429 10.7825,4.9795 1.57795,18.7309 -0.943561,32.1443 0.293408,45.3914 c 0.005597,0.0648 0.041978,0.1268 0.092353,0.1662 6.072899,4.4598 11.955539,7.1673 17.728939,8.9619 0.0924,0.0282 0.1903,-0.0056 0.2491,-0.0817 1.3657,-1.865 2.5831,-3.8315 3.6269,-5.8995 0.0616,-0.1211 0.0028,-0.2648 -0.1231,-0.3127 -1.931,-0.7325 -3.7697,-1.6256 -5.5384,-2.6398 -0.1399,-0.0817 -0.1511,-0.2818 -0.0224,-0.3776 0.3722,-0.2789 0.7445,-0.5691 1.0999,-0.8621 0.0643,-0.0535 0.1539,-0.0648 0.2295,-0.031 11.6196,5.3051 24.1992,5.3051 35.6817,0 0.0756,-0.0366 0.1652,-0.0253 0.2323,0.0282 0.3555,0.293 0.7277,0.586 1.1027,0.8649 0.1287,0.0958 0.1203,0.2959 -0.0196,0.3776 -1.7687,1.0339 -3.6074,1.9073 -5.5412,2.637 -0.1259,0.0479 -0.1819,0.1944 -0.1203,0.3155 1.0662,2.0651 2.2836,4.0316 3.6241,5.8967 0.056,0.0789 0.1567,0.1127 0.2491,0.0845 5.8014,-1.7946 11.684,-4.5021 17.7569,-8.9619 0.0532,-0.0394 0.0868,-0.0986 0.0924,-0.1634 C 72.1747,30.0791 68.2147,16.7757 60.1968,4.9823 60.1772,4.9429 60.1437,4.9147 60.1045,4.8978 Z M 23.7259,37.3253 c -3.4983,0 -6.3808,-3.2117 -6.3808,-7.156 0,-3.9443 2.8266,-7.156 6.3808,-7.156 3.5821,0 6.4367,3.2399 6.3807,7.156 0,3.9443 -2.8266,7.156 -6.3807,7.156 z m 23.5919,0 c -3.4982,0 -6.3807,-3.2117 -6.3807,-7.156 0,-3.9443 2.8265,-7.156 6.3807,-7.156 3.5822,0 6.4367,3.2399 6.3808,7.156 0,3.9443 -2.7986,7.156 -6.3808,7.156 z"
       fill="#ffffff"
       id="path15690"
       style="display:inline;fill:#ffffff;stroke:#000000;stroke-width:4.63689;stroke-dasharray:none;paint-order:markers stroke fill"
       transform="matrix(0.11412101,0,0,0.11412101,3.3570378,3.2150214)" /><text
       xml:space="preserve"
       style="font-size:4.58611px;line-height:0.95;font-family:'Old English Text MT';-inkscape-font-specification:'Old English Text MT';fill:#ffffff;stroke:#000000;stroke-width:0.396875;stroke-dasharray:none;paint-order:markers stroke fill"
       x="21.367609"
       y="5.6034675"
       id="text15688"><tspan
         sodipodi:role="line"
         id="tspan15684"
         style="font-style:normal;font-variant:normal;font-weight:normal;font-stretch:normal;font-size:4.58611px;font-family:Bahnschrift;-inkscape-font-specification:Bahnschrift;text-align:center;text-anchor:middle;fill:#ffffff;stroke:#000000;stroke-width:0.396875;stroke-dasharray:none;paint-order:markers stroke fill"
         x="21.367609"
         y="5.6034675">Support</tspan><tspan
         sodipodi:role="line"
         style="font-style:normal;font-variant:normal;font-weight:normal;font-stretch:normal;font-size:4.58611px;font-family:Bahnschrift;-inkscape-font-specification:Bahnschrift;text-align:center;text-anchor:middle;fill:#ffffff;stroke:#000000;stroke-width:0.396875;stroke-dasharray:none;paint-order:markers stroke fill"
         x="21.367609"
         y="10.146697"
         id="tspan15686">Discord</tspan></text></g><g
     inkscape:groupmode="layer"
     id="g15694"
     inkscape:label="GitHub"
     style="display:none"><path
       d="m 0,0 c -8.995,0 -16.288,-7.293 -16.288,-16.29 0,-7.197 4.667,-13.302 11.14,-15.457 0.815,-0.149 1.112,0.354 1.112,0.786 0,0.386 -0.014,1.411 -0.022,2.77 -4.531,-0.984 -5.487,2.184 -5.487,2.184 -0.741,1.882 -1.809,2.383 -1.809,2.383 -1.479,1.01 0.112,0.99 0.112,0.99 1.635,-0.115 2.495,-1.679 2.495,-1.679 1.453,-2.489 3.813,-1.77 4.741,-1.353 0.148,1.052 0.568,1.77 1.034,2.177 -3.617,0.411 -7.42,1.809 -7.42,8.051 0,1.778 0.635,3.232 1.677,4.371 -0.168,0.412 -0.727,2.068 0.159,4.311 0,0 1.368,0.438 4.48,-1.67 1.299,0.362 2.693,0.542 4.078,0.548 1.383,-0.006 2.777,-0.186 4.078,-0.548 3.11,2.108 4.475,1.67 4.475,1.67 0.889,-2.243 0.33,-3.899 0.162,-4.311 1.044,-1.139 1.675,-2.593 1.675,-4.371 0,-6.258 -3.809,-7.635 -7.438,-8.038 0.585,-0.503 1.106,-1.497 1.106,-3.017 0,-2.177 -0.02,-3.934 -0.02,-4.468 0,-0.436 0.293,-0.943 1.12,-0.784 6.468,2.159 11.131,8.26 11.131,15.455 C 16.291,-7.293 8.997,0 0,0"
       style="display:inline;fill:#ffffff;fill-opacity:1;fill-rule:evenodd;stroke:#000000;stroke-width:1.96364;stroke-dasharray:none;paint-order:markers stroke fill"
       id="path16606"
       inkscape:label="path16606"
       transform="matrix(0.26948254,0,0,-0.26948254,7.4053946,2.0686139)" /><text
       xml:space="preserve"
       style="font-size:4.58611px;line-height:0.95;font-family:'Old English Text MT';-inkscape-font-specification:'Old English Text MT';display:inline;fill:#ffffff;stroke:#000000;stroke-width:0.396875;stroke-dasharray:none;paint-order:markers stroke fill"
       x="21.896776"
       y="5.6034675"
       id="text15688-8"><tspan
         sodipodi:role="line"
         style="font-style:normal;font-variant:normal;font-weight:normal;font-stretch:normal;font-size:4.58611px;font-family:Bahnschrift;-inkscape-font-specification:Bahnschrift;text-align:center;text-anchor:middle;fill:#ffffff;stroke:#000000;stroke-width:0.396875;stroke-dasharray:none;paint-order:markers stroke fill"
         x="21.896776"
         y="5.6034675"
         id="tspan15686-2">Source</tspan><tspan
         sodipodi:role="line"
         style="font-style:normal;font-variant:normal;font-weight:normal;font-stretch:normal;font-size:4.58611px;font-family:Bahnschrift;-inkscape-font-specification:Bahnschrift;text-align:center;text-anchor:middle;fill:#ffffff;stroke:#000000;stroke-width:0.396875;stroke-dasharray:none;paint-order:markers stroke fill"
         x="21.896776"
         y="10.146697"
         id="tspan18415">code</tspan></text></g><g
     inkscape:groupmode="layer"
     id="layer3"
     inkscape:label="Configuration"
     style="display:none"><text
       xml:space="preserve"
       style="font-size:4.58611px;line-height:0.95;font-family:'Old English Text MT';-inkscape-font-specification:'Old English Text MT';display:inline;fill:#ffffff;stroke:#000000;stroke-width:0.396875;stroke-dasharray:none;paint-order:markers stroke fill"
       x="21.896776"
       y="5.6034675"
       id="text15688-9"><tspan
         sodipodi:role="line"
         style="font-style:normal;font-variant:normal;font-weight:normal;font-stretch:normal;font-size:4.58611px;font-family:Bahnschrift;-inkscape-font-specification:Bahnschrift;text-align:center;text-anchor:middle;fill:#ffffff;stroke:#000000;stroke-width:0.396875;stroke-dasharray:none;paint-order:markers stroke fill"
         x="21.896776"
         y="5.6034675"
         id="tspan20638">Config</tspan><tspan
         sodipodi:role="line"
         style="font-style:normal;font-variant:normal;font-weight:normal;font-stretch:normal;font-size:4.58611px;font-family:Bahnschrift;-inkscape-font-specification:Bahnschrift;text-align:center;text-anchor:middle;fill:#ffffff;stroke:#000000;stroke-width:0.396875;stroke-dasharray:none;paint-order:markers stroke fill"
         x="21.896776"
         y="10.146697"
         id="tspan20654">guide</tspan></text><path
       d="M 11.649142,8.7555006 8.4985756,5.6049342 C 8.81017,4.808637 8.6370621,3.8738536 7.9792514,3.216043 7.2868193,2.5236107 6.248171,2.3851244 5.4172523,2.7659622 L 6.9059815,4.2546913 5.8673332,5.2933396 4.3439824,3.8046104 C 3.928523,4.6355291 4.1016311,5.6741774 4.7940633,6.3666095 5.4518739,7.0244202 6.3866574,7.1975281 7.1829544,6.8859337 L 10.333521,10.0365 c 0.138487,0.138487 0.346216,0.138487 0.484704,0 L 11.61452,9.2402032 c 0.173108,-0.1384864 0.173108,-0.3808378 0.03462,-0.4847026 z"
       id="path20643"
       style="fill:#ffffff;stroke:#000000;stroke-width:0.529167;stroke-dasharray:none;paint-order:markers stroke fill" /></g></svg>
